<?xml version="1.0" encoding="iso-8859-1"?>
<!-- Generator: Adobe Illustrator 18.1.1, SVG Export Plug-In . SVG Version: 6.00 Build 0)  -->
<svg xmlns="http://www.w3.org/2000/svg" xmlns:xlink="http://www.w3.org/1999/xlink" version="1.1" id="Capa_1" x="0px" y="0px" viewBox="0 0 612 612" style="enable-background:new 0 0 612 612;" xml:space="preserve" width="512px" height="512px">
<g>
	<path d="M566.085,61.883H45.915C20.597,61.883,0,82.48,0,107.798v337.096c0,25.316,20.597,45.913,45.915,45.913h114.199   l-22.25,17.113c-7.988,6.144-11.178,16.695-7.934,26.237c3.245,9.54,12.205,15.958,22.285,15.958h307.57   c10.078,0,19.04-6.418,22.285-15.958c3.245-9.542,0.056-20.093-7.934-26.237l-22.25-17.115h114.197   c25.318,0,45.915-20.597,45.915-45.913V107.798C612,82.48,591.403,61.883,566.085,61.883z M549.23,428.038H62.77V124.652h486.462   v303.387H549.23z" fill="#FFFFFF"/>
</g>
<g>
</g>
<g>
</g>
<g>
</g>
<g>
</g>
<g>
</g>
<g>
</g>
<g>
</g>
<g>
</g>
<g>
</g>
<g>
</g>
<g>
</g>
<g>
</g>
<g>
</g>
<g>
</g>
<g>
</g>
</svg>
